
<svg width="200" height="200" viewBox="0 0 200 200" xmlns="http://www.w3.org/2000/svg">
  <g transform="translate(20, 20)">
    <!-- Paw outline -->
    <path d="M 30 20 Q 20 25, 15 40 Q 12 55, 20 70 Q 25 80, 40 85 L 40 120 Q 45 135, 60 140 Q 70 142, 80 135 Q 85 130, 85 120 L 85 85 Q 100 80, 105 70 Q 113 55, 110 40 Q 105 25, 95 20 Q 80 12, 62.5 20 Q 45 12, 30 20 Z" 
          fill="white" 
          stroke="black" 
          stroke-width="4"/>
    
    <!-- Left pad -->
    <circle cx="35" cy="35" r="12" fill="#FFB6B6"/>
    
    <!-- Right pad -->
    <circle cx="90" cy="35" r="12" fill="#FFB6B6"/>
    
    <!-- Center paw pad -->
    <ellipse cx="62.5" cy="70" rx="18" ry="22" fill="#FFB6B6"/>
    
    <!-- Left toe curves -->
    <path d="M 25 50 Q 20 55, 22 62 Q 25 68, 32 68 Q 38 67, 40 62 Q 42 55, 38 50 Q 32 45, 25 50 Z" 
          fill="white" 
          stroke="black" 
          stroke-width="3"/>
    
    <!-- Right toe curves -->
    <path d="M 87 50 Q 93 45, 100 50 Q 104 55, 102 62 Q 100 67, 93 68 Q 86 68, 83 62 Q 81 55, 87 50 Z" 
          fill="white" 
          stroke="black" 
          stroke-width="3"/>
  </g>
</svg>
